<svg transform="scale(2)" id="_0358_it_support" xmlns="http://www.w3.org/2000/svg" viewBox="0 0 500 500" class="show_show__wrapper__graphic__5Waiy "><title>React</title><defs><style>.cls-1{fill:#ffffff;}.cls-2{fill:#f4a28c;}.cls-3{opacity:.46;}.cls-3,.cls-4,.cls-5,.cls-6,.cls-7,.cls-8,.cls-9,.cls-10,.cls-11,.cls-12,.cls-13,.cls-14,.cls-15,.cls-16{fill:none;}.cls-17{fill:#a5a5a5;}.cls-4{opacity:.16;}.cls-5{opacity:.58;}.cls-6{opacity:.02;}.cls-7{opacity:.56;}.cls-18{fill:#ce8172;}.cls-8{opacity:.23;}.cls-19{fill:#929292;}.cls-9{opacity:.03;}.cls-10{opacity:.09;}.cls-11{opacity:.73;}.cls-12{opacity:.08;}.cls-13{opacity:.36;}.cls-14{opacity:.52;}.cls-15{opacity:.31;}.cls-20{fill:#24285b;}.cls-16{opacity:.84;}.cls-21{fill:#000001;}.cls-22{fill:#ffd200;}.cls-23{fill:#000000;}</style></defs><g class="cls-9" id="sd"><ellipse class="cls-21" cx="251.03" cy="439.67" rx="231.44" ry="35.21"></ellipse></g><g id="monitor"><polygon class="cls-17" points="210.59 320.02 191.62 418.86 284.14 418.86 265.18 320.02 210.59 320.02"></polygon><rect class="cls-19" x="62.28" y="110.54" width="361.18" height="235.05"></rect><rect class="cls-19" x="178.98" y="409.09" width="117.23" height="19.94"></rect><g class="cls-7"><rect class="cls-1" x="62.28" y="110.54" width="361.18" height="208.04"></rect></g><circle class="cls-20" cx="90.01" cy="131.69" r="7.6"></circle><circle class="cls-23" cx="112.61" cy="131.69" r="7.6"></circle><circle class="cls-22" cx="133.91" cy="131.69" r="7.6"></circle><path class="cls-17" d="m329.54,212.47c1.51-.56,2.39-1.73,2.79-3.27v-1.66c-.24-1.07-.44-2.16-.72-3.21-.75-2.84-1.73-5.58-3.49-7.98-.32-.42-.68-.82-1.06-1.19-1.29-1.25-3.12-1.5-4.76-.73-3.39,1.62-6.94,2.01-10.57,1.11-4.54-1.14-8.2-5.64-8.68-10.41-.25-2.43.07-4.76,1.04-7,.21-.51.35-1.05.48-1.58.25-.94.11-1.85-.51-2.58-.85-1-1.68-2.07-2.71-2.87-3.25-2.54-7.02-3.74-11.13-3.99-.76-.04-1.41.2-1.97.68-.92.79-1.68,1.71-2.15,2.86-2.72,6.59-10.11,9.82-16.6,7.36-3.67-1.4-6.04-4.25-7.58-7.82-.08-.18-.14-.36-.24-.55-1.02-2.05-2.22-2.74-4.48-2.48-3.89.46-7.56,1.63-10.85,3.81-.62.41-1.19.91-1.71,1.44-1.18,1.25-1.55,2.66-1.09,4.4,1.04,3.91.89,7.83-.42,11.66-1.18,3.48-3.87,5.41-7.19,6.49-3.11,1.01-6.24.81-9.31-.26-.49-.17-.98-.3-1.46-.46-1.59-.56-2.9-.08-4.06,1.04-1.13,1.08-1.91,2.41-2.6,3.78-1.32,2.66-2.22,5.44-2.36,8.43-.05,1.13.25,2.19.77,3.18.44.86,1.09,1.48,2,1.84,2.67,1.07,4.9,2.77,6.8,4.91,3.53,4,3.73,9.8.47,14.14-1.89,2.5-4.24,4.48-7.17,5.65-1.77.71-2.54,2-2.76,3.78-.19,1.62.13,3.19.54,4.74.68,2.6,1.76,5.01,3.2,7.29,1.03,1.63,2.42,2.72,4.4,2.79.73.03,1.49-.12,2.2-.33,3.27-.93,6.55-1.17,9.88-.3,1.4.36,2.63,1.06,3.65,2.08,3.87,3.8,4.24,8.93,2.61,13.08-.31.79-.68,1.56-.94,2.37-.46,1.44-.19,2.75.79,3.93,1.13,1.33,2.52,2.33,4.04,3.16,2.91,1.57,5.99,2.73,9.3,3.18.73.1,1.5.07,2.23-.04,1.76-.27,2.96-1.27,3.62-2.95,1.09-2.78,2.87-5.01,5.23-6.72.26-.19.52-.37.79-.55,1.37-.89,2.84-1.46,4.34-1.72,3.7-.65,7.59.54,10.53,3.42,1.59,1.55,2.78,3.35,3.64,5.41.41.99,1.04,1.85,1.89,2.53.84.66,1.79.76,2.81.66,4.24-.44,8.05-2,11.48-4.52,2.21-1.62,2.73-4.12,1.69-6.44-1.62-3.6-1.72-7.32-.08-10.97,1.7-3.74,4.57-5.91,8.72-6.41,2.75-.33,5.43-.09,8,.81,3.05,1.07,5.68-.34,7.12-2.11,2.08-2.54,3.25-5.51,3.87-8.72.18-.91.23-1.84.27-2.76.06-1.44-.55-2.65-1.59-3.57-.7-.61-1.51-1.17-2.37-1.53-8.61-3.56-10.29-14.32-4.31-20.5,1.63-1.69,3.49-3,5.69-3.84Zm-45.87,45.63c-3.06.88-6.3,1.36-9.65,1.36-4.81,0-9.33-1-13.41-2.76-12.58-5.42-21.05-18.14-20.95-31.89.14-19.06,15.46-34.4,34.45-34.38,19.16.01,34.63,15.44,34.58,34.48-.05,15.79-10.61,29.03-25.01,33.18Z"></path><path class="cls-17" d="m211.66,260.93c1.07.13,1.95-.3,2.67-1.09l.51-.99c.19-.71.4-1.42.56-2.13.42-1.92.68-3.85.37-5.83-.06-.35-.15-.7-.27-1.04-.39-1.14-1.4-1.85-2.61-1.89-2.52-.08-4.75-.93-6.64-2.58-2.35-2.07-3.16-5.87-1.98-8.87.6-1.52,1.5-2.81,2.77-3.85.28-.24.53-.52.77-.79.44-.49.64-1.07.49-1.69-.2-.86-.37-1.75-.73-2.54-1.15-2.51-3.04-4.38-5.41-5.78-.44-.26-.91-.31-1.38-.2-.79.19-1.53.51-2.16,1.04-3.64,3.09-9.03,2.75-12.14-.7-1.76-1.96-2.3-4.39-2.12-6.98,0-.13.03-.26.03-.4.02-1.54-.48-2.31-1.91-2.85-2.46-.92-5-1.34-7.63-1.06-.5.06-.99.17-1.46.33-1.09.39-1.74,1.11-2,2.29-.58,2.65-1.87,4.94-3.82,6.82-1.77,1.71-3.96,2.03-6.28,1.66-2.16-.35-3.96-1.43-5.47-3-.24-.25-.49-.48-.73-.72-.77-.82-1.7-.93-2.73-.62-1.01.3-1.88.85-2.71,1.46-1.6,1.18-2.99,2.56-3.99,4.3-.38.66-.52,1.38-.52,2.13,0,.65.19,1.21.63,1.71,1.26,1.45,2.07,3.15,2.54,5.01.88,3.46-.78,6.99-4.06,8.57-1.89.91-3.9,1.37-6,1.17-1.27-.12-2.13.41-2.8,1.4-.61.91-.9,1.94-1.13,2.99-.39,1.75-.49,3.53-.32,5.32.11,1.29.61,2.36,1.77,3.01.42.24.93.38,1.41.48,2.23.45,4.26,1.31,5.98,2.85.72.65,1.24,1.43,1.54,2.36,1.14,3.45-.21,6.62-2.45,8.59-.43.38-.88.72-1.28,1.12-.71.72-.96,1.58-.73,2.59.27,1.14.79,2.16,1.44,3.12,1.25,1.83,2.73,3.46,4.57,4.75.4.28.87.5,1.34.66,1.13.38,2.15.15,3.06-.65,1.5-1.32,3.25-2.1,5.17-2.4.21-.04.42-.06.64-.08,1.09-.11,2.14,0,3.12.31,2.4.74,4.36,2.64,5.23,5.27.47,1.41.63,2.85.51,4.34-.06.71.05,1.42.35,2.09.29.65.84,1,1.47,1.26,2.66,1.04,5.41,1.28,8.22.83,1.81-.29,2.89-1.62,2.98-3.32.14-2.64,1.22-4.89,3.31-6.56,2.16-1.71,4.53-2.12,7.16-1.15,1.74.65,3.26,1.61,4.52,2.94,1.49,1.57,3.49,1.54,4.89.92,2.02-.88,3.63-2.29,4.98-4.01.38-.49.7-1.02,1.01-1.56.48-.84.49-1.74.15-2.61-.23-.58-.54-1.16-.94-1.64-4.04-4.76-1.74-11.68,3.71-13.54,1.49-.51,3-.72,4.57-.54Zm-41.31,13.13c-2.1-.41-4.17-1.12-6.16-2.15-2.86-1.47-5.25-3.45-7.15-5.75-5.83-7.08-6.98-17.26-2.71-25.42,5.92-11.31,19.75-15.76,31.06-9.93,11.41,5.88,15.9,19.82,10.03,31.14-4.87,9.39-15.22,14.04-25.07,12.11Z"></path></g><g class="cls-4" id="sd-2"><path class="cls-17" d="m403.82,313.64c-.86,3.85-1.77,7.71-2.71,11.54-1.71,7.02-3.71,14.36-7.44,20.41h-52.37c-.04-.18-.08-.39-.1-.59-.18-1.63,2.57-17.97,4.65-31.36,1.49-9.85,2.61-18.11,1.94-17.88-11.83,3.75-25.63,7.28-35.87.24-3.06-2.1-5.49-5-7.89-7.85-16.11-19.27-32.24-38.56-48.35-57.83-1.79-2.14-3.57-5.49-1.55-7.42,1.73-1.67,4.59-.51,6.67.71,7.48,4.42,14.97,8.83,22.46,13.24,6.03,3.55,15.46,11.94,22.58,12.31,11.38.6,27.82-11.61,34.44-20,7.63-9.67,11.74-21.7,13.86-33.83,1.99-11.37,2.82-24.04,10.99-32.2,5.55-5.55,14.6-9.48,14.8-17.32.25-9.34-9.03-17.66-2.93-27.23,7.08-11.1,18.4-3.65,21,6.27,1.94,7.44,1.71,15.27,2.39,22.92,1.37,15.44,6.49,30.26,9.65,45.42,8.24,39.68,2.81,80.8-6.2,120.46Z"></path></g><g id="plant"><g class="cls-5"><path class="cls-23" d="m108.38,425.61s-14.34-3.92-17.46-17.26c0,0,22.22-4.49,22.85,18.44l-5.39-1.18Z"></path></g><g class="cls-11"><path class="cls-23" d="m110.14,424.18s-10.02-15.84-1.2-30.65c0,0,16.89,10.73,9.39,30.68l-8.19-.03Z"></path></g><path class="cls-23" d="m112.72,424.19s5.29-16.73,21.3-19.9c0,0,3,10.86-10.36,19.94l-10.93-.05Z"></path><polygon class="cls-20" points="102.32 423.82 105.23 443.71 123.53 443.78 126.23 423.92 102.32 423.82"></polygon></g><g id="loading"><rect class="cls-19" x="17.53" y="180.56" width="101.87" height="108.16"></rect><rect class="cls-17" x="35.35" y="265.67" width="66.23" height="4.63"></rect><g class="cls-8"><rect class="cls-1" x="47.85" y="265.67" width="41.24" height="4.63"></rect></g><g class="cls-6"><circle class="cls-17" cx="85.26" cy="211.3" r="6.43"></circle></g><g class="cls-13"><circle class="cls-17" cx="52.73" cy="243.84" r="6.43"></circle></g><g class="cls-4"><circle class="cls-17" cx="85.26" cy="243.84" r="6.43"></circle></g><g class="cls-16"><circle class="cls-17" cx="52.73" cy="211.3" r="6.43"></circle></g><g class="cls-8"><circle class="cls-17" cx="68.78" cy="251.41" r="6.43"></circle></g><circle class="cls-17" cx="68.78" cy="205.4" r="6.43"></circle><g class="cls-14"><circle class="cls-17" cx="45.46" cy="228.1" r="6.43"></circle></g><g class="cls-10"><circle class="cls-17" cx="91.47" cy="228.1" r="6.43"></circle></g><g class="cls-8"><circle class="cls-17" cx="25.81" cy="188.14" r="2.1"></circle></g><g class="cls-8"><circle class="cls-17" cx="35.35" cy="188.14" r="2.1"></circle></g><g class="cls-8"><circle class="cls-17" cx="44.9" cy="188.14" r="2.1"></circle></g></g><g id="person"><path class="cls-2" d="m269.44,208.78s-4.93-4.17-6.26-6.64c-1.33-2.46-3.03-10.81-5.12-10.62s.38,4.93,0,9.48-2.46-1.71-3.41.57,1.71,4.93,3.41,7.2c1.71,2.28,10.05,9.1,10.05,9.1l1.33-9.1Z"></path><path class="cls-23" d="m355.46,161.94s-27.44,68.68-38.06,64.89c-10.62-3.79-49.26-21.23-49.26-21.23l-4.04,9.94s39.16,53.72,62.67,44.62c23.51-9.1,54.84-56.48,54.84-56.48l-26.16-41.73Z"></path><g class="cls-3"><path class="cls-1" d="m355.46,161.94s-27.44,68.68-38.06,64.89c-10.62-3.79-49.26-21.23-49.26-21.23l-4.04,9.94s39.16,53.72,62.67,44.62c23.51-9.1,54.84-56.48,54.84-56.48l-26.16-41.73Z"></path></g><path class="cls-23" d="m366.57,430.92s-2.36,6.26-8.05,6.65c-5.69.4-7.26,5.93-2.17,7.45,5.09,1.53,18.37-4.84,18.37-4.84l-.31-10.41-7.83,1.15Z"></path><path class="cls-23" d="m440.55,429.76s-1.49,7.41-7.18,7.8c-5.69.4-7.26,5.93-2.17,7.45,5.09,1.53,18.37-4.84,18.37-4.84l-.31-10.41h-8.7Z"></path><path class="cls-23" d="m391.01,142.6l17.88.57s55.17,3.86,63.53,36.26c8.36,32.4-29.96,109.05-29.96,109.05h-72.36s-62.61-140.37,20.9-145.87Z"></path><path class="cls-20" d="m391.01,142.6s-1.3,69.97-1.09,68.97,18.97-68.41,18.97-68.41l-17.88-.57Z"></path><path class="cls-2" d="m390.43,104.08s-2.01,9.68-1.14,16.38c.35,2.72,2.89,4.66,5.6,4.27,3.37-.49,7.78-2.13,9.48-7.18l3.95-8.22s2.29-5.24-2.77-9.88-14.2-1.32-15.13,4.64Z"></path><polygon class="cls-2" points="407.61 110.8 408.89 143.16 391.01 142.6 397.25 119.28 407.61 110.8"></polygon><path class="cls-20" d="m392.81,104.77c1.7.29,4.85.65,9.13.38,0,0-3.57,3.91-1.06,8.98,2.51,5.07,7.73,3.61,7.73,3.61l1.33-12.63c.51-3.67-1.02-7.33-4.01-9.51-1.22-.89-2.58-1.8-3.97-2.56-3.46-1.89-9.06-.1-12.02-2.93-1.3-1.24-3.47-.63-3.94,1.11-1.02,3.77-1.05,9.88,3.89,12.6.9.5,1.9.78,2.92.96Z"></path><path class="cls-20" d="m442.47,288.47s-9.71,70.64,10.09,141.29h-14.69s-26.26-41.61-32.93-127.51l37.53-13.78Z"></path><path class="cls-2" d="m399.86,113.71s.52-3.77,3.33-3.14c2.8.63,2.08,6.08-1.83,6.13l-1.49-2.99Z"></path><path class="cls-2" d="m389.47,110.24l-3.18,3.46c-.79.85-.42,2.24.69,2.58l3.67,1.15-1.18-7.19Z"></path><g class="cls-15"><path class="cls-18" d="m395.67,124.33s3.36-.28,6.15-2.74c0,0-.95,5.85-8.1,10.89l1.95-8.15Z"></path></g><path class="cls-20" d="m370.11,288.47s-17.68,100.79-6.55,141.29h14.24s4.9-93.46,28.93-115.27l35.75-26.02h-72.36Z"></path><g class="cls-12"><path class="cls-21" d="m440.24,165.19s-29.36,11.17-13.34,56.28c16.02,45.11,10.18,50.43-6.82,47.49-9-1.56-15.33-14.2-19.25-21.24-3.15-5.65-5.57-11.63-8.57-17.34-2.62-5-9.56-4.81-14.49-4.54-8.57.47-17.12,1.16-25.66,2.05.4,2.41,2.47,4.16,4.46,5.57,4.26,3.03,8.85,5.59,13.66,7.64,4.13,1.76,6.99,1.92,11.4,1.74,0,0-2.34,34.3,16.13,45.63h44.72l23.3-24.27v-60.82l-25.53-38.2Z"></path></g><path class="cls-23" d="m443.27,162.36c6-4.69,14.59-3.99,19.91,1.46,9.94,10.18,23.78,33,17.86,78.58-8.9,68.54-56.21,67.54-95.17-2.23l11.88-7.57s35.68,49.4,51.25,24.92c14.13-22.21-33.22-73.66-5.73-95.17Z"></path><g class="cls-3"><path class="cls-1" d="m443.27,162.36c6-4.69,14.59-3.99,19.91,1.46,9.94,10.18,23.78,33,17.86,78.58-8.9,68.54-56.21,67.54-95.17-2.23l11.88-7.57s35.68,49.4,51.25,24.92c14.13-22.21-33.22-73.66-5.73-95.17Z"></path></g><path class="cls-2" d="m395.93,233.77c.22-.14-1.89-4.05-2.11-4.32-1.4-1.71-3.51-2.2-5.6-2.4-1.65-.16-3.3-.32-4.95-.48-2.08-.2-4.27-.39-6.19.42-1.06.45-2.08,1.39-1.98,2.53.09.91.89,1.62,1.75,1.93s1.8.33,2.7.45c4.02.55,7.09,3.15,8.7,6.75,0,0,7.64-4.86,7.67-4.88Z"></path><polygon class="cls-22" points="308.19 230.45 299.39 180.74 361.75 180.74 367.16 223.12 395.76 223.52 395.76 230.45 308.19 230.45"></polygon><circle class="cls-1" cx="333.02" cy="204.58" r="6.24"></circle><circle class="cls-17" cx="403.73" cy="113.04" r="3.66"></circle><path class="cls-17" d="m394.01,127.48c-2.37,0-4.17-.76-4.28-.8l.39-.92s3.84,1.6,7.45,0c2.96-1.31,4.67-9.1,5.08-11.99l.99.14c-.06.45-1.59,10.97-5.67,12.77-1.37.6-2.74.81-3.96.81Z"></path><circle class="cls-17" cx="389.82" cy="126.33" r="1.56"></circle><path class="cls-23" d="m410.04,103.7l-24.16-19.43s.45-.85,2.39.43,9.49,6.68,9.49,6.68c0,0,3.07-5.12,9.64-.43,6.56,4.69,5.28,9.58,2.65,12.75Z"></path><path class="cls-17" d="m402.37,113.04s4.13-13.83,3.57-17.44c-.56-3.61-2.79-6.56-2.79-6.56,0,0,3.96-.43,5.75,3.11,0,0,4.01,4.58-3.26,21.45l-3.26-.56Z"></path><rect class="cls-1" x="407.39" y="184.41" width="19.15" height="13.93"></rect><g class="cls-12"><rect class="cls-21" x="416.11" y="182.51" width="2.84" height="4.75"></rect></g></g><g id="clock"><circle class="cls-19" cx="250" cy="58.38" r="33.26"></circle><circle class="cls-1" cx="250" cy="58.38" r="21.23"></circle><path class="cls-17" d="m241.09,65.05c-.62,0-1.23-.33-1.55-.91-.47-.85-.16-1.93.7-2.4l8-4.4v-12.2c0-.98.79-1.77,1.77-1.77s1.77.79,1.77,1.77v13.24c0,.64-.35,1.24-.91,1.55l-8.91,4.91c-.27.15-.56.22-.85.22Z"></path></g></svg>